<?xml version="1.0" encoding="UTF-8" standalone="no"?>
<!DOCTYPE svg PUBLIC "-//W3C//DTD SVG 1.1//EN"
 "http://www.w3.org/Graphics/SVG/1.1/DTD/svg11.dtd">
<!-- Generated by graphviz version 2.38.0 (20140413.2041)
 -->
<!-- Title: %3 Pages: 1 -->
<svg width="713pt" height="392pt"
 viewBox="0.00 0.00 713.00 392.00" xmlns="http://www.w3.org/2000/svg" xmlns:xlink="http://www.w3.org/1999/xlink">
<g id="graph0" class="graph" transform="scale(1 1) rotate(0) translate(4 388)">
<title>%3</title>
<!-- 3641799691480593915 -->
<g id="node1" class="node"><title>3641799691480593915</title>
<polygon fill="none" stroke="black" points="301.5,-297 218.5,-297 218.5,-261 301.5,-261 301.5,-297"/>
<text text-anchor="middle" x="260" y="-275.3" font-family="Times New Roman,serif" font-size="14.00">check ticket</text>
</g>
<!-- 1388943518327610263 -->
<g id="node2" class="node"><title>1388943518327610263</title>
<polygon fill="none" stroke="black" points="346,-210 292,-210 292,-174 346,-174 346,-210"/>
<text text-anchor="middle" x="319" y="-188.3" font-family="Times New Roman,serif" font-size="14.00">decide</text>
</g>
<!-- 3641799691480593915&#45;&gt;1388943518327610263 -->
<g id="edge1" class="edge"><title>3641799691480593915&#45;&gt;1388943518327610263</title>
<path fill="none" stroke="black" stroke-width="1.56041" d="M271.94,-260.799C280.336,-248.702 291.718,-232.305 301.184,-218.667"/>
<polygon fill="black" stroke="black" stroke-width="1.56041" points="304.251,-220.386 307.078,-210.175 298.501,-216.395 304.251,-220.386"/>
<text text-anchor="middle" x="302.5" y="-231.8" font-family="Times New Roman,serif" font-size="14.00">2D</text>
</g>
<!-- &#45;8465710615697779991 -->
<g id="node3" class="node"><title>&#45;8465710615697779991</title>
<polygon fill="none" stroke="black" points="135,-36 25,-36 25,-0 135,-0 135,-36"/>
<text text-anchor="middle" x="80" y="-14.3" font-family="Times New Roman,serif" font-size="14.00">examine casually</text>
</g>
<!-- 3641799691480593915&#45;&gt;&#45;8465710615697779991 -->
<g id="edge2" class="edge"><title>3641799691480593915&#45;&gt;&#45;8465710615697779991</title>
<path fill="none" stroke="black" stroke-width="1.28024" d="M236.946,-260.918C203.479,-234.893 141.762,-182.061 108,-123 94.2834,-99.0051 87.0718,-68.0474 83.4262,-46.1669"/>
<polygon fill="black" stroke="black" stroke-width="1.28024" points="86.8778,-45.5831 81.9102,-36.2251 79.9578,-46.6384 86.8778,-45.5831"/>
<text text-anchor="middle" x="138.5" y="-144.8" font-family="Times New Roman,serif" font-size="14.00">1D</text>
</g>
<!-- 5036307283705889311 -->
<g id="node4" class="node"><title>5036307283705889311</title>
<polygon fill="none" stroke="black" points="662.5,-36 537.5,-36 537.5,-0 662.5,-0 662.5,-36"/>
<text text-anchor="middle" x="600" y="-14.3" font-family="Times New Roman,serif" font-size="14.00">examine thoroughly</text>
</g>
<!-- 3641799691480593915&#45;&gt;5036307283705889311 -->
<g id="edge3" class="edge"><title>3641799691480593915&#45;&gt;5036307283705889311</title>
<path fill="none" stroke="black" stroke-width="1.29085" d="M301.645,-270.925C372.142,-256.596 514.122,-217.125 584,-123 600.357,-100.967 603.027,-68.9845 602.441,-46.3138"/>
<polygon fill="black" stroke="black" stroke-width="1.29085" points="605.937,-46.1395 601.959,-36.3198 598.945,-46.4769 605.937,-46.1395"/>
<text text-anchor="middle" x="576.5" y="-144.8" font-family="Times New Roman,serif" font-size="14.00">1D</text>
</g>
<!-- &#45;8512241141941713612 -->
<g id="node5" class="node"><title>&#45;8512241141941713612</title>
<polygon fill="none" stroke="black" points="405.5,-123 286.5,-123 286.5,-87 405.5,-87 405.5,-123"/>
<text text-anchor="middle" x="346" y="-101.3" font-family="Times New Roman,serif" font-size="14.00">pay compensation</text>
</g>
<!-- 1388943518327610263&#45;&gt;&#45;8512241141941713612 -->
<g id="edge4" class="edge"><title>1388943518327610263&#45;&gt;&#45;8512241141941713612</title>
<path fill="none" stroke="black" stroke-width="2.6" d="M324.464,-173.799C328.197,-162.047 333.218,-146.238 337.474,-132.842"/>
<polygon fill="black" stroke="black" stroke-width="2.6" points="340.853,-133.766 340.544,-123.175 334.181,-131.647 340.853,-133.766"/>
<text text-anchor="middle" x="343.5" y="-144.8" font-family="Times New Roman,serif" font-size="14.00">5D</text>
</g>
<!-- 127667213100391469 -->
<g id="node7" class="node"><title>127667213100391469</title>
<polygon fill="none" stroke="black" points="268.5,-123 161.5,-123 161.5,-87 268.5,-87 268.5,-123"/>
<text text-anchor="middle" x="215" y="-101.3" font-family="Times New Roman,serif" font-size="14.00">reinitiate request</text>
</g>
<!-- 1388943518327610263&#45;&gt;127667213100391469 -->
<g id="edge5" class="edge"><title>1388943518327610263&#45;&gt;127667213100391469</title>
<path fill="none" stroke="black" stroke-width="1.19878" d="M297.954,-173.799C282.448,-161.126 261.168,-143.734 244.044,-129.738"/>
<polygon fill="black" stroke="black" stroke-width="1.19878" points="245.972,-126.794 236.015,-123.175 241.543,-132.214 245.972,-126.794"/>
<text text-anchor="middle" x="284.5" y="-144.8" font-family="Times New Roman,serif" font-size="14.00">18h</text>
</g>
<!-- 1495882173609512077 -->
<g id="node8" class="node"><title>1495882173609512077</title>
<polygon fill="none" stroke="black" points="514.5,-123 423.5,-123 423.5,-87 514.5,-87 514.5,-123"/>
<text text-anchor="middle" x="469" y="-101.3" font-family="Times New Roman,serif" font-size="14.00">reject request</text>
</g>
<!-- 1388943518327610263&#45;&gt;1495882173609512077 -->
<g id="edge6" class="edge"><title>1388943518327610263&#45;&gt;1495882173609512077</title>
<path fill="none" stroke="black" stroke-width="1.47367" d="M346.164,-175.607C369.575,-162.341 403.66,-143.026 429.989,-128.106"/>
<polygon fill="black" stroke="black" stroke-width="1.47367" points="431.973,-131.005 438.948,-123.029 428.522,-124.914 431.973,-131.005"/>
<text text-anchor="middle" x="411.5" y="-144.8" font-family="Times New Roman,serif" font-size="14.00">1D</text>
</g>
<!-- &#45;8465710615697779991&#45;&gt;3641799691480593915 -->
<g id="edge7" class="edge"><title>&#45;8465710615697779991&#45;&gt;3641799691480593915</title>
<path fill="none" stroke="black" stroke-width="1.1411" d="M78.4345,-36.3932C76.7465,-63.377 76.4339,-116.345 95,-156 117.493,-204.043 169.642,-237.472 209.338,-257.034"/>
<polygon fill="black" stroke="black" stroke-width="1.1411" points="207.836,-260.195 218.368,-261.353 210.857,-253.88 207.836,-260.195"/>
<text text-anchor="middle" x="105.5" y="-144.8" font-family="Times New Roman,serif" font-size="14.00">13h</text>
</g>
<!-- &#45;8465710615697779991&#45;&gt;1388943518327610263 -->
<g id="edge8" class="edge"><title>&#45;8465710615697779991&#45;&gt;1388943518327610263</title>
<path fill="none" stroke="black" stroke-width="2.16583" d="M87.2497,-36.1147C98.6346,-62.3104 120.863,-110.621 135,-123 146.47,-133.043 231.916,-162.306 282.239,-178.987"/>
<polygon fill="black" stroke="black" stroke-width="2.16583" points="281.21,-182.333 291.803,-182.146 283.406,-175.687 281.21,-182.333"/>
<text text-anchor="middle" x="143.5" y="-101.3" font-family="Times New Roman,serif" font-size="14.00">4D</text>
</g>
<!-- 5036307283705889311&#45;&gt;3641799691480593915 -->
<g id="edge9" class="edge"><title>5036307283705889311&#45;&gt;3641799691480593915</title>
<path fill="none" stroke="black" stroke-width="1.95825" d="M610.276,-36.2312C613.02,-41.7196 615.607,-47.9433 617,-54 623.961,-84.2637 616.307,-93.7065 606,-123 587.954,-174.287 567.15,-182.927 520,-210 454.05,-247.869 366.68,-265.082 311.902,-272.591"/>
<polygon fill="black" stroke="black" stroke-width="1.95825" points="311.191,-269.154 301.731,-273.924 312.101,-276.094 311.191,-269.154"/>
<text text-anchor="middle" x="607.5" y="-144.8" font-family="Times New Roman,serif" font-size="14.00">3D</text>
</g>
<!-- 5036307283705889311&#45;&gt;1388943518327610263 -->
<g id="edge10" class="edge"><title>5036307283705889311&#45;&gt;1388943518327610263</title>
<path fill="none" stroke="black" stroke-width="1.23114" d="M591.517,-36.3189C579.397,-59.3323 555.005,-99.7817 523,-123 472.053,-159.96 399.729,-177.732 356.284,-185.558"/>
<polygon fill="black" stroke="black" stroke-width="1.23114" points="355.418,-182.155 346.154,-187.296 356.602,-189.055 355.418,-182.155"/>
<text text-anchor="middle" x="569.5" y="-101.3" font-family="Times New Roman,serif" font-size="14.00">21h</text>
</g>
<!-- &#45;1990893780473211347 -->
<g id="node6" class="node"><title>&#45;1990893780473211347</title>
<polygon fill="none" stroke="black" points="310.5,-384 209.5,-384 209.5,-348 310.5,-348 310.5,-384"/>
<text text-anchor="middle" x="260" y="-362.3" font-family="Times New Roman,serif" font-size="14.00">register request</text>
</g>
<!-- &#45;1990893780473211347&#45;&gt;3641799691480593915 -->
<g id="edge11" class="edge"><title>&#45;1990893780473211347&#45;&gt;3641799691480593915</title>
<path fill="none" stroke="black" stroke-width="1.11341" d="M260,-347.799C260,-336.163 260,-320.548 260,-307.237"/>
<polygon fill="black" stroke="black" stroke-width="1.11341" points="263.5,-307.175 260,-297.175 256.5,-307.175 263.5,-307.175"/>
<text text-anchor="middle" x="270.5" y="-318.8" font-family="Times New Roman,serif" font-size="14.00">10h</text>
</g>
<!-- &#45;1990893780473211347&#45;&gt;&#45;8465710615697779991 -->
<g id="edge12" class="edge"><title>&#45;1990893780473211347&#45;&gt;&#45;8465710615697779991</title>
<path fill="none" stroke="black" stroke-width="1.09188" d="M209.252,-358.893C133.587,-348.352 0,-323.572 0,-280 0,-280 0,-280 0,-104 0,-77.9959 20.1002,-56.7045 40.1501,-41.9349"/>
<polygon fill="black" stroke="black" stroke-width="1.09188" points="42.1731,-44.7913 48.3819,-36.2063 38.1746,-39.0456 42.1731,-44.7913"/>
<text text-anchor="middle" x="7" y="-188.3" font-family="Times New Roman,serif" font-size="14.00">8h</text>
</g>
<!-- &#45;1990893780473211347&#45;&gt;5036307283705889311 -->
<g id="edge13" class="edge"><title>&#45;1990893780473211347&#45;&gt;5036307283705889311</title>
<path fill="none" stroke="black" stroke-width="1.25085" d="M310.723,-365.362C423.266,-364.797 684,-355.357 684,-280 684,-280 684,-280 684,-104 684,-77.5596 663.183,-56.3793 642.275,-41.7745"/>
<polygon fill="black" stroke="black" stroke-width="1.25085" points="643.959,-38.6926 633.682,-36.1157 640.109,-44.5388 643.959,-38.6926"/>
<text text-anchor="middle" x="694.5" y="-188.3" font-family="Times New Roman,serif" font-size="14.00">23h</text>
</g>
<!-- 127667213100391469&#45;&gt;3641799691480593915 -->
<g id="edge14" class="edge"><title>127667213100391469&#45;&gt;3641799691480593915</title>
<path fill="none" stroke="black" stroke-width="1.78241" d="M219.461,-123.052C227.299,-153.009 243.595,-215.298 252.964,-251.106"/>
<polygon fill="black" stroke="black" stroke-width="1.78241" points="249.604,-252.091 255.521,-260.879 256.376,-250.319 249.604,-252.091"/>
<text text-anchor="middle" x="250.5" y="-188.3" font-family="Times New Roman,serif" font-size="14.00">2D</text>
</g>
<!-- 127667213100391469&#45;&gt;&#45;8465710615697779991 -->
<g id="edge15" class="edge"><title>127667213100391469&#45;&gt;&#45;8465710615697779991</title>
<path fill="none" stroke="black" stroke-width="1.21968" d="M190.244,-86.9551C175.742,-77.1068 156.992,-64.6068 140,-54 133.239,-49.7794 125.969,-45.4052 118.905,-41.238"/>
<polygon fill="black" stroke="black" stroke-width="1.21968" points="120.518,-38.127 110.12,-36.0974 116.983,-44.1687 120.518,-38.127"/>
<text text-anchor="middle" x="173.5" y="-57.8" font-family="Times New Roman,serif" font-size="14.00">20h</text>
</g>
<!-- 127667213100391469&#45;&gt;5036307283705889311 -->
<g id="edge16" class="edge"><title>127667213100391469&#45;&gt;5036307283705889311</title>
<path fill="none" stroke="black" d="M268.717,-89.0587C271.515,-88.3471 274.288,-87.6566 277,-87 362.557,-66.2842 461.738,-45.9451 527.386,-32.9897"/>
<polygon fill="black" stroke="black" points="528.088,-36.4187 537.225,-31.0538 526.737,-29.5504 528.088,-36.4187"/>
<text text-anchor="middle" x="431.5" y="-57.8" font-family="Times New Roman,serif" font-size="14.00">48m</text>
</g>
</g>
</svg>
